<?xml version="1.0" encoding="UTF-8"?>
<svg width="30px" height="30px" viewBox="0 0 30 30" version="1.1" xmlns="http://www.w3.org/2000/svg" xmlns:xlink="http://www.w3.org/1999/xlink">
    <!-- Generator: Sketch 52.2 (67145) - http://www.bohemiancoding.com/sketch -->
    <title>Fill 1@3x</title>
    <desc>Created with Sketch.</desc>
    <g id="首页、用户管理" stroke="none" stroke-width="1" fill="none" fill-rule="evenodd">
        <path d="M15,30 C6.71570783,30 0,23.2842922 0,15 C0,6.71570783 6.71570783,0 15,0 C23.2842922,0 30,6.71570783 30,15 C30,23.2842922 23.2842922,30 15,30 Z M15,7.5 C14.3095934,7.5 13.7493976,8.0601506 13.7493976,8.75060241 L13.7493976,16.2506024 C13.7493976,16.941009 14.3095934,17.5011596 15,17.5011596 C15.6904066,17.5011596 16.2506024,16.941009 16.2506024,16.2506024 L16.2506024,8.75060241 C16.2506024,8.0601506 15.6904066,7.5 15,7.5 Z M15,19.9988404 C14.3095934,19.9988404 13.7493976,20.558991 13.7493976,21.2493976 C13.7493976,21.9398494 14.3095934,22.5 15,22.5 C15.6904066,22.5 16.2506024,21.9398494 16.2506024,21.2493976 C16.2506024,20.558991 15.6904066,19.9988404 15,19.9988404 Z" id="Fill-1" fill="#FFA600"></path>
    </g>
</svg>